<?xml version="1.0" encoding="UTF-8"?>
<svg version="1.1" xmlns="http://www.w3.org/2000/svg" width="128" height="128">
<path d="M0 0 C3.91905935 0.88467731 7.50921192 2.42025646 11.18740845 4.0112915 C12.4609745 4.54775803 12.4609745 4.54775803 13.76026917 5.09506226 C16.52550507 6.26286112 19.28428973 7.44507012 22.0428772 8.628479 C23.96023143 9.44393749 25.87787796 10.25870904 27.79580688 11.07281494 C31.70342553 12.7331141 35.60843109 14.39938286 39.51211548 16.06890869 C44.03477684 17.99970968 48.56833323 19.9024317 53.1098175 21.78848267 C56.31772011 23.12140074 59.52127298 24.46455932 62.72412109 25.80957031 C64.21363461 26.4327109 65.70484351 27.05181623 67.19781494 27.66662598 C84.97961961 35.00196383 84.97961961 35.00196383 88.2303772 41.503479 C88.48775434 45.5892081 88.50137567 49.67664387 88.52554321 53.76983643 C88.54272725 55.7982793 88.58661094 57.82507894 88.63076782 59.85308838 C88.63914673 61.1363501 88.64752563 62.41961182 88.65615845 63.74176025 C88.67074097 64.91778809 88.68532349 66.09381592 88.7003479 67.30548096 C88.13777247 71.13362409 86.95573192 72.80539369 84.2303772 75.503479 C83.5703772 75.503479 82.9103772 75.503479 82.2303772 75.503479 C81.9003772 76.163479 81.5703772 76.823479 81.2303772 77.503479 C78.916315 78.23423549 76.5820885 78.90486158 74.2303772 79.503479 C74.2303772 80.163479 74.2303772 80.823479 74.2303772 81.503479 C73.57440552 81.59790283 72.91843384 81.69232666 72.24258423 81.78961182 C68.28732398 82.72697451 64.74869244 84.29350484 61.0350647 85.925354 C60.24697418 86.26721741 59.45888367 86.60908081 58.64691162 86.96130371 C56.13104759 88.05412021 53.61824675 89.15379712 51.1053772 90.253479 C49.43889704 90.97786657 47.77223206 91.70182909 46.1053772 92.425354 C38.52565769 95.72089649 30.95908638 99.03867557 23.45523071 102.50445557 C20.29307586 103.92435436 17.07812476 105.19566196 13.85147095 106.46051025 C9.83773329 108.0576309 5.86836557 109.75932301 1.8944397 111.45269775 C-2.60811508 113.22863212 -2.60811508 113.22863212 -4.7696228 113.503479 C-9.30428501 110.04849827 -10.54447362 106.95695983 -11.7696228 101.503479 C-12.02726784 98.58909155 -12.03351525 95.69781342 -12.01254272 92.77349854 C-12.01444107 91.92861877 -12.01633942 91.08373901 -12.01829529 90.21325684 C-12.02198104 87.43750542 -12.0113276 84.66201944 -12.00009155 81.8862915 C-11.99889805 79.94487539 -11.99844695 78.0034587 -11.998703 76.06204224 C-11.99714176 71.99870167 -11.98888126 67.93544964 -11.97543335 63.87213135 C-11.95846693 58.68183059 -11.95461868 53.4916272 -11.95537853 48.30130196 C-11.95510562 44.29313235 -11.94960459 40.28498373 -11.94237709 36.27682114 C-11.93921023 34.36399367 -11.93722768 32.45116384 -11.93648338 30.53833389 C-11.93429734 27.85626493 -11.92550425 25.17429576 -11.91488647 22.49224854 C-11.91533966 21.71273834 -11.91579285 20.93322815 -11.91625977 20.13009644 C-11.83580006 6.1188991 -11.83580006 6.1188991 -8.7071228 1.378479 C-5.35824181 -0.75910461 -3.82979258 -0.59422651 0 0 Z " fill="#87A6E4" transform="translate(26.769622802734375,7.49652099609375)"/>
<path d="M0 0 C0.66 0.33 1.32 0.66 2 1 C2 30.37 2 59.74 2 90 C2.66 90.33 3.32 90.66 4 91 C3.34 91 2.68 91 2 91 C2 91.99 2 92.98 2 94 C2.66 94.33 3.32 94.66 4 95 C4 95.99 4 96.98 4 98 C4.66 98.66 5.32 99.32 6 100 C6.33 100.99 6.66 101.98 7 103 C7.66 103 8.32 103 9 103 C9 103.66 9 104.32 9 105 C9.58015869 104.69610352 10.16031738 104.39220703 10.75805664 104.07910156 C12.79294483 103.09966066 14.7172464 102.39596813 16.87109375 101.734375 C22.76073966 99.8140737 28.44775854 97.42798681 34.16189575 95.0430603 C36.09012516 94.23847292 38.02037558 93.43888865 39.95092773 92.63989258 C45.4339311 90.36467845 50.90490457 88.07181087 56.3125 85.62109375 C57.04976318 85.28754883 57.78702637 84.95400391 58.54663086 84.61035156 C60.41286506 83.75600189 62.27126177 82.88458784 64.12890625 82.01171875 C67.18883825 80.933457 68.03331004 81.08218402 71 82 C69.98687744 82.43344727 68.97375488 82.86689453 67.92993164 83.31347656 C64.13327486 84.93800882 60.33697275 86.56336847 56.54077148 88.18896484 C54.90479884 88.88938225 53.26873301 89.58958202 51.63256836 90.28955078 C42.32728734 94.27063225 33.03915838 98.27645799 23.8125 102.4375 C18.00123183 104.9280435 11.96278229 106.9076506 6 109 C1.25222535 104.87693254 -0.62133698 101.3074422 -1.17708397 94.98559952 C-1.25168429 92.74438522 -1.25900186 90.51241174 -1.24291992 88.27001953 C-1.24481827 87.42513977 -1.24671661 86.58026001 -1.24867249 85.70977783 C-1.25235824 82.93402641 -1.2417048 80.15854043 -1.23046875 77.3828125 C-1.22927525 75.44139639 -1.22882415 73.49997969 -1.2290802 71.55856323 C-1.22751896 67.49522266 -1.21925846 63.43197064 -1.20581055 59.36865234 C-1.18884413 54.17835159 -1.18499588 48.98814819 -1.18575573 43.79782295 C-1.18548282 39.78965335 -1.17998178 35.78150473 -1.17275429 31.77334213 C-1.16958743 29.86051466 -1.16760488 27.94768483 -1.16686058 26.03485489 C-1.16467454 23.35278593 -1.15588145 20.67081676 -1.14526367 17.98876953 C-1.14571686 17.20925934 -1.14617004 16.42974915 -1.14663696 15.62661743 C-1.11635283 10.3529599 -0.65245633 5.23404919 0 0 Z M2 99 C2.66 99.66 3.32 100.32 4 101 C4 100.34 4 99.68 4 99 C3.34 99 2.68 99 2 99 Z " fill="#8B9CC1" transform="translate(16,12)"/>
<path d="M0 0 C-1.01312256 0.43344727 -2.02624512 0.86689453 -3.07006836 1.31347656 C-6.86672514 2.93800882 -10.66302725 4.56336847 -14.45922852 6.18896484 C-16.09520116 6.88938225 -17.73126699 7.58958202 -19.36743164 8.28955078 C-32.67615807 13.97617719 -32.67615807 13.97617719 -45.8972168 19.86303711 C-49.24452351 21.35254228 -52.37199661 22.45030252 -56 23 C-56 22.34 -56 21.68 -56 21 C-55.41959961 20.75991211 -54.83919922 20.51982422 -54.24121094 20.27246094 C-51.41006987 19.10007958 -48.5800281 17.92506539 -45.75 16.75 C-44.69200195 16.31196045 -43.63400391 15.8739209 -42.54394531 15.42260742 C-36.4391426 12.88486029 -30.36201428 10.29503503 -24.3125 7.62890625 C-23.03947552 7.07108933 -21.76636423 6.51347047 -20.49316406 5.95605469 C-18.62604597 5.13859248 -16.76106649 4.3174622 -14.90124512 3.48352051 C-13.16261981 2.70416103 -11.41736178 1.93964972 -9.671875 1.17578125 C-8.17285645 0.50929565 -8.17285645 0.50929565 -6.64355469 -0.1706543 C-3.87380578 -1.03959011 -2.66686446 -1.03073916 0 0 Z " fill="#92A2C5" transform="translate(87,94)"/>
<path d="M0 0 C6.54746544 1.69254209 11.33743291 4.01826909 16 9 C18.11457422 13.22914844 17.18585828 18.77899806 17.18530273 23.43115234 C17.18749158 25.49207127 17.20565983 27.5524569 17.22460938 29.61328125 C17.22750977 31.55267578 17.22750977 31.55267578 17.23046875 33.53125 C17.23457764 34.72298828 17.23868652 35.91472656 17.24291992 37.14257812 C17 40 17 40 15 42 C15.02094727 41.14768799 15.04189453 40.29537598 15.06347656 39.41723633 C15.13185244 36.23970567 15.18189738 33.06255129 15.21972656 29.88452148 C15.2397799 28.51199977 15.26703028 27.13956283 15.30175781 25.76733398 C15.35054552 23.78927956 15.37088876 21.81058881 15.390625 19.83203125 C15.41157227 18.64327393 15.43251953 17.4545166 15.45410156 16.22973633 C14.91345864 12.38448619 13.55517182 10.8428339 11 8 C11 7.34 11 6.68 11 6 C7.37802806 4.50859979 3.72433382 3.2125738 0 2 C0 1.34 0 0.68 0 0 Z " fill="#90A3CC" transform="translate(98,38)"/>
<path d="M0 0 C7.51744387 0.42878624 13.64410348 3.08149715 20.5 6.0625 C21.60859375 6.53494141 22.7171875 7.00738281 23.859375 7.49414062 C26.57691983 8.6537826 29.29013145 9.82255829 32 11 C27.9255567 12.35814777 25.18531884 10.94745762 21.3125 9.5625 C20.61060547 9.31951172 19.90871094 9.07652344 19.18554688 8.82617188 C17.45421468 8.2255056 15.72671863 7.61380281 14 7 C14 6.34 14 5.68 14 5 C13.32453125 4.80664062 12.6490625 4.61328125 11.953125 4.4140625 C10.61507813 4.02347656 10.61507813 4.02347656 9.25 3.625 C8.36828125 3.36976562 7.4865625 3.11453125 6.578125 2.8515625 C4.23919428 2.0790066 2.16557438 1.16374324 0 0 Z " fill="#93A4CA" transform="translate(21,7)"/>
<path d="M0 0 C6.03024428 0.43129185 9.89044151 2.32822208 14.9375 5.5625 C15.62134766 5.98724609 16.30519531 6.41199219 17.00976562 6.84960938 C18.6798778 7.88904982 20.34091218 8.94305216 22 10 C21.01 10.495 21.01 10.495 20 11 C17.09143769 9.64946134 14.30218336 8.1692727 11.49414062 6.625 C7.26681185 4.39100885 3.77028209 3.42865179 -1 3 C-0.67 2.01 -0.34 1.02 0 0 Z " fill="#7896D4" transform="translate(41,35)"/>
<path d="M0 0 C0.66 0.33 1.32 0.66 2 1 C2.33 1.99 2.66 2.98 3 4 C3.66 4 4.32 4 5 4 C5 4.66 5 5.32 5 6 C6.32 5.34 7.64 4.68 9 4 C9.66 4.66 10.32 5.32 11 6 C8.24921116 6.91692961 6.64051087 7.10886083 3.8125 7.0625 C1.9253125 7.0315625 1.9253125 7.0315625 0 7 C-1.125 2.25 -1.125 2.25 0 0 Z " fill="#7692CD" transform="translate(20,111)"/>
<path d="M0 0 C4.29 0 8.58 0 13 0 C10.3144406 2.6855594 7.62378672 3.06049974 4 4 C2.68 2.68 1.36 1.36 0 0 Z " fill="#95A2BE" transform="translate(18,117)"/>
</svg>
