<?xml version="1.0" encoding="UTF-8"?>
<svg version="1.1" xmlns="http://www.w3.org/2000/svg" width="32" height="32">
<path d="M0 0 C20.3 6.3 20.3 6.3 24 10 C24.07205511 11.68608966 24.08386068 13.37500659 24.0625 15.0625 C24.05347656 15.98160156 24.04445313 16.90070312 24.03515625 17.84765625 C24.02355469 18.55792969 24.01195313 19.26820312 24 20 C20.7778676 21.51545463 17.54626873 23.00955711 14.3125 24.5 C13.40048828 24.92925781 12.48847656 25.35851562 11.54882812 25.80078125 C10.21948242 26.40986328 10.21948242 26.40986328 8.86328125 27.03125 C8.05157471 27.40830078 7.23986816 27.78535156 6.40356445 28.17382812 C3.79247322 29.07133272 1.74124384 29.15359499 -1 29 C-3.11689593 24.76620814 -2.18493005 19.15160218 -2.1875 14.5 C-2.19974609 13.33339844 -2.21199219 12.16679687 -2.22460938 10.96484375 C-2.22654297 9.85238281 -2.22847656 8.73992188 -2.23046875 7.59375 C-2.23457764 6.56958984 -2.23868652 5.54542969 -2.24291992 4.49023438 C-2 2 -2 2 0 0 Z " fill="#84A1DD" transform="translate(5,1)"/>
<path d="M0 0 C4.34862851 0.8697257 7.16270693 1.9474944 11 4 C11 4.99 11 5.98 11 7 C4.5 11 4.5 11 0 11 C0 7.37 0 3.74 0 0 Z " fill="#98B8F0" transform="translate(10,10)"/>
</svg>
