<?xml version="1.0" encoding="UTF-8"?>
<svg version="1.1" xmlns="http://www.w3.org/2000/svg" width="48" height="48">
<path d="M0 0 C4.56824701 0.59404024 8.3730174 1.81339104 12.60546875 3.6171875 C13.51429558 4.00392136 13.51429558 4.00392136 14.44148254 4.39846802 C15.71263906 4.94156415 16.98237644 5.48799289 18.25073242 6.03759766 C20.18826463 6.8753306 22.13172266 7.69800207 24.07617188 8.51953125 C25.31548729 9.05119115 26.55443304 9.58371375 27.79296875 10.1171875 C28.9121167 10.59784668 30.03126465 11.07850586 31.18432617 11.57373047 C33.70949086 12.85284363 35.28863333 13.77698384 37 16 C37.80077204 20.72527644 37.96583548 25.41602981 35.4375 29.5625 C32.41307239 31.34613679 29.38234104 32.10655142 26 33 C25.67 33.66 25.34 34.32 25 35 C22.40505903 36.0790263 19.83364893 37.06470326 17.1875 38 C15.74276511 38.51882035 14.29873132 39.03959792 12.85546875 39.5625 C12.17830811 39.80766357 11.50114746 40.05282715 10.8034668 40.30541992 C8.88007963 41.01263621 8.88007963 41.01263621 6.65625 42.17578125 C4.37297131 43.3120355 2.50956214 43.20347801 0 43 C-4.25317102 38.74682898 -2.18459216 24.33306058 -2.1875 18.75 C-2.19974609 17.49703125 -2.21199219 16.2440625 -2.22460938 14.953125 C-2.22654297 13.7465625 -2.22847656 12.54 -2.23046875 11.296875 C-2.23457764 10.20729492 -2.23868652 9.11771484 -2.24291992 7.99511719 C-1.99570561 4.9470517 -1.28922017 2.75536083 0 0 Z " fill="#86A2DB" transform="translate(7,2)"/>
<path d="M0 0 C4.06897075 0.5292014 7.18271924 1.34534026 10.75 3.375 C11.88695312 4.00535156 11.88695312 4.00535156 13.046875 4.6484375 C15 6 15 6 17 9 C11.83132665 12.62158745 6.90372107 15.73900044 1 18 C0 17 0 17 -0.09765625 13.18359375 C-0.09098089 11.60153318 -0.07901875 10.01948841 -0.0625 8.4375 C-0.05798828 7.63119141 -0.05347656 6.82488281 -0.04882812 5.99414062 C-0.03700518 3.99606244 -0.01906914 1.99802217 0 0 Z " fill="#99B8F0" transform="translate(15,15)"/>
</svg>
