<?xml version="1.0" encoding="UTF-8"?>
<svg version="1.1" xmlns="http://www.w3.org/2000/svg" width="256" height="256">
<path d="M0 0 C1.01864891 0.40019348 1.01864891 0.40019348 2.05787659 0.80847168 C4.30504819 1.69887385 6.54173545 2.61222368 8.77734375 3.53125 C9.55777039 3.84980957 10.33819702 4.16836914 11.14227295 4.49658203 C17.18327305 6.96841888 23.20027521 9.49592742 29.21484375 12.03125 C31.12751739 12.834842 33.0402792 13.63822416 34.953125 14.44140625 C47.37689061 19.66171998 59.78582854 24.91685714 72.18530273 30.19458008 C81.81375536 34.28994437 91.46468141 38.33003346 101.12133789 42.35839844 C129.59683017 54.23819671 129.59683017 54.23819671 142.33984375 59.78125 C143.28279297 60.18625732 144.22574219 60.59126465 145.19726562 61.00854492 C154.37355192 65.0422169 164.47320282 69.58051217 169.77734375 78.53125 C171.8022597 85.06698838 172.11286032 91.15343096 172.1484375 97.96875 C172.15746597 99.04825928 172.16649445 100.12776855 172.17579651 101.23999023 C172.19024307 103.51250457 172.19917175 105.78505996 172.20288086 108.05761719 C172.21480809 111.52089526 172.26407735 114.98240794 172.31445312 118.4453125 C172.32391532 120.6614497 172.33115133 122.87759776 172.3359375 125.09375 C172.35546982 126.12105225 172.37500214 127.14835449 172.39512634 128.20678711 C172.34698525 135.92659157 170.35619834 140.5430017 165.23655701 146.24829102 C163.77734375 147.53125 163.77734375 147.53125 161.77734375 147.53125 C161.44734375 148.19125 161.11734375 148.85125 160.77734375 149.53125 C159.11067708 149.86458333 157.44401042 150.19791667 155.77734375 150.53125 C155.44734375 151.19125 155.11734375 151.85125 154.77734375 152.53125 C152.57998706 153.58869109 150.40672345 154.54987039 148.15234375 155.46875 C146.33863281 156.22478516 146.33863281 156.22478516 144.48828125 156.99609375 C143.94478027 157.219021 143.4012793 157.44194824 142.84130859 157.67163086 C137.46274078 159.91174646 132.12263399 162.24444924 126.77734375 164.5625 C125.81828125 164.97828308 125.81828125 164.97828308 124.83984375 165.40246582 C122.81895052 166.27858915 120.79813677 167.15489556 118.77734375 168.03125 C116.11074988 169.18766798 113.44407177 170.34389141 110.77734375 171.5 C109.01390625 172.26473633 109.01390625 172.26473633 107.21484375 173.04492188 C101.57842173 175.4820339 95.93110582 177.89365832 90.28515625 180.30859375 C88.45034226 181.0939572 86.61552911 181.87932261 84.78076172 182.66479492 C83.53215705 183.19919253 82.28345964 183.73337352 81.03466797 184.26733398 C74.51555561 187.05498811 68.00133145 189.84956045 61.53027344 192.74731445 C55.30521669 195.53125 55.30521669 195.53125 51.77734375 195.53125 C51.44734375 196.19125 51.11734375 196.85125 50.77734375 197.53125 C48.51628664 198.5497711 46.28039272 199.46701616 43.96484375 200.34375 C42.58568818 200.88087067 41.20678465 201.41863893 39.828125 201.95703125 C38.79679443 202.35656006 38.79679443 202.35656006 37.74462891 202.76416016 C29.58946206 205.94404775 21.61959087 209.48699359 13.6875 213.18359375 C10.40885133 214.70189414 7.10837383 216.13221737 3.77734375 217.53125 C2.01390625 218.335625 2.01390625 218.335625 0.21484375 219.15625 C-2.99297162 220.43937615 -5.83950745 220.96739187 -9.22265625 221.53125 C-9.55265625 222.19125 -9.88265625 222.85125 -10.22265625 223.53125 C-12.98541802 223.00856534 -15.54874385 222.42255413 -18.22265625 221.53125 C-18.22265625 220.87125 -18.22265625 220.21125 -18.22265625 219.53125 C-19.21265625 219.20125 -20.20265625 218.87125 -21.22265625 218.53125 C-21.59476045 217.20821283 -21.92895798 215.87387065 -22.22265625 214.53125 C-22.88265625 214.20125 -23.54265625 213.87125 -24.22265625 213.53125 C-28.0338116 202.68014797 -26.39255233 188.42320664 -26.43139648 177.01049805 C-26.4409591 175.19054496 -26.45085121 173.37059358 -26.46104431 171.55064392 C-26.49210706 165.63144 -26.51263738 159.71222328 -26.53125 153.79296875 C-26.53454732 152.78214619 -26.53784464 151.77132363 -26.54124188 150.72987008 C-26.57197107 141.1844444 -26.59864571 131.63901512 -26.61566067 122.0935545 C-26.63761295 109.92803776 -26.67975902 97.76295936 -26.74909824 85.59761781 C-26.79634956 77.01467819 -26.8205943 68.43185701 -26.82785755 59.84879142 C-26.83280499 54.7327638 -26.84780443 49.61723372 -26.88760185 44.5013485 C-26.92450969 39.69527045 -26.93286436 34.88997361 -26.91959572 30.08378029 C-26.91964957 28.32499181 -26.92990534 26.56616815 -26.95134735 24.80751038 C-27.13629772 8.77714587 -27.13629772 8.77714587 -21.74258518 2.07304096 C-15.25403867 -4.50883412 -8.00184619 -3.18130901 0 0 Z " fill="#87A6E5" transform="translate(58.22265625,17.46875)"/>
<path d="M0 0 C0.66 0.33 1.32 0.66 2 1 C2.625 3.5625 2.625 3.5625 3 6 C1.35 5.67 -0.3 5.34 -2 5 C-2.185625 6.2065625 -2.185625 6.2065625 -2.375 7.4375 C-2.58125 8.283125 -2.7875 9.12875 -3 10 C-3.99 10.495 -3.99 10.495 -5 11 C-4.98839844 11.7734375 -4.97679687 12.546875 -4.96484375 13.34375 C-4.91290155 19.33936364 -5.08815844 25.07302983 -6 31 C-5.34 31.33 -4.68 31.66 -4 32 C-4.66 32 -5.32 32 -6 32 C-5.96970703 33.20011719 -5.93941406 34.40023437 -5.90820312 35.63671875 C-5.79537886 40.11699987 -5.6838738 44.59731303 -5.57275391 49.07763672 C-5.52460766 51.01156489 -5.47611037 52.94548436 -5.42724609 54.87939453 C-5.3568088 57.66957382 -5.28766124 60.45978265 -5.21875 63.25 C-5.19687622 64.10553467 -5.17500244 64.96106934 -5.15246582 65.8425293 C-4.77459599 81.32378796 -4.77459599 81.32378796 -6 85 C-5.34 85.33 -4.68 85.66 -4 86 C-4.66 86 -5.32 86 -6 86 C-5.96447021 86.56396484 -5.92894043 87.12792969 -5.89233398 87.70898438 C-5.73310341 90.30558579 -5.58523852 92.90272038 -5.4375 95.5 C-5.38142578 96.386875 -5.32535156 97.27375 -5.26757812 98.1875 C-5.04490679 102.22527354 -4.9094083 106.06588335 -5.5 110.07421875 C-6.0757163 114.59449126 -5.88888897 118.78432204 -5.5625 123.3125 C-5.15265593 129.57147669 -5.00349955 135.74976642 -5.04760742 142.02246094 C-5.09687524 149.29124009 -5.13043136 156.560013 -5.15543652 163.82891464 C-5.17108892 168.22620407 -5.19233526 172.62331882 -5.22631836 177.02050781 C-5.25900189 181.27742471 -5.27687039 185.53417365 -5.28463173 189.79120636 C-5.29015519 191.40986023 -5.30094109 193.02850536 -5.31719017 194.6470871 C-5.33908774 196.91824507 -5.34196201 199.18871375 -5.34057617 201.45996094 C-5.35056892 203.39497467 -5.35056892 203.39497467 -5.36076355 205.36907959 C-4.93957775 209.60812239 -3.94601911 212.23045877 -2 216 C0.78623923 217.8835812 3.67600251 218.56618022 7 219 C9.78223378 218.30514736 9.78223378 218.30514736 12 217 C13.32 217 14.64 217 16 217 C16.33 216.01 16.66 215.02 17 214 C17.804375 213.938125 18.60875 213.87625 19.4375 213.8125 C23.50686201 212.88439989 26.41232245 211.21493986 29.94921875 209.05859375 C32 208 32 208 35 208 C35.66 207.34 36.32 206.68 37 206 C37.99 206 38.98 206 40 206 C40 205.34 40 204.68 40 204 C42.93479598 203.13541688 45.87221519 202.28302813 48.8125 201.4375 C50.06256836 201.0672168 50.06256836 201.0672168 51.33789062 200.68945312 C52.14033203 200.46064453 52.94277344 200.23183594 53.76953125 199.99609375 C54.50792236 199.78138428 55.24631348 199.5666748 56.00708008 199.34545898 C58 199 58 199 61 200 C53.7603221 203.39311038 46.42986405 206.51214164 39.01586914 209.50024414 C34.91014559 211.16632793 30.9483566 212.98017596 27 215 C24.67328135 216.01529541 22.3396553 217.01488198 20 218 C18.2365625 218.804375 18.2365625 218.804375 16.4375 219.625 C13.22968463 220.90812615 10.3831488 221.43614187 7 222 C6.67 222.66 6.34 223.32 6 224 C3.23723823 223.47731534 0.6739124 222.89130413 -2 222 C-2 221.34 -2 220.68 -2 220 C-2.99 219.67 -3.98 219.34 -5 219 C-5.3721042 217.67696283 -5.70630173 216.34262065 -6 215 C-6.66 214.67 -7.32 214.34 -8 214 C-11.81971271 203.11950434 -10.15427935 188.85224584 -10.16113281 177.41577148 C-10.16577257 175.58932905 -10.17079874 173.76288755 -10.17617798 171.93644714 C-10.1891768 167.01974223 -10.19572001 162.10305088 -10.20018864 157.18633151 C-10.2031346 154.11107184 -10.20724175 151.03581577 -10.21169281 147.96055794 C-10.22532325 138.32678893 -10.23501641 128.69302827 -10.2388947 119.0592503 C-10.24339041 107.95643782 -10.26102671 96.85374753 -10.2898953 85.75097221 C-10.3114872 77.14770806 -10.32159734 68.54447841 -10.32293582 59.94118744 C-10.32398393 54.80980299 -10.32989539 49.67853411 -10.34775543 44.54717827 C-10.36419701 39.73142367 -10.36641077 34.91587218 -10.35761642 30.10009956 C-10.35684445 28.33320701 -10.36120989 26.56630366 -10.37107468 24.79943848 C-10.38374628 22.38883019 -10.37794434 19.97894701 -10.36749268 17.56834412 C-10.37554908 16.86874162 -10.38360548 16.16913912 -10.39190602 15.44833654 C-10.34803315 11.12597008 -9.59283322 8.46438177 -7 5 C-4.78751563 3.08125017 -2.45430641 1.62076839 0 0 Z " fill="#8D9EC0" transform="translate(42,17)"/>
<path d="M0 0 C7.27785083 2.26911095 14.13300728 5.14386734 21.0625 8.3125 C22.61807617 9.00375977 22.61807617 9.00375977 24.20507812 9.70898438 C32.78761412 13.62201125 40.6098486 18.07330677 46 26 C48.07660804 32.5135587 48.33557212 38.63282285 48.37109375 45.4375 C48.38463646 47.05676392 48.38463646 47.05676392 48.39845276 48.70874023 C48.41289932 50.98125457 48.421828 53.25380996 48.42553711 55.52636719 C48.43746434 58.98964526 48.4867336 62.45115794 48.53710938 65.9140625 C48.54657157 68.1301997 48.55380758 70.34634776 48.55859375 72.5625 C48.57812607 73.58980225 48.59765839 74.61710449 48.61778259 75.67553711 C48.5696415 83.39534157 46.57885459 88.0117517 41.45921326 93.71704102 C40 95 40 95 38 95 C39.45317939 91.6092481 41.41300312 89.58699688 44 87 C44.91336288 84.25991136 45.15249243 82.50519135 45.22119141 79.67138672 C45.24436432 78.7997287 45.26753723 77.92807068 45.29141235 77.02999878 C45.3112619 76.08939606 45.33111145 75.14879333 45.3515625 74.1796875 C45.37471527 73.20645538 45.39786804 72.23322327 45.42172241 71.23049927 C45.46936684 69.16771643 45.5146003 67.10487672 45.55761719 65.04199219 C45.62429859 61.90796609 45.70226482 58.77436216 45.78125 55.640625 C45.82620981 53.63282781 45.87050162 51.62501553 45.9140625 49.6171875 C45.93796051 48.68873016 45.96185852 47.76027283 45.98648071 46.80368042 C46.26676447 34.59904376 46.26676447 34.59904376 41 24 C41 23.34 41 22.68 41 22 C40.48566406 21.74863281 39.97132813 21.49726562 39.44140625 21.23828125 C36.89476266 19.94662362 34.38486218 18.59329173 31.87402344 17.23364258 C25.02778799 13.53519088 18.12803315 10.12835623 11 7 C8.93635168 6.06503042 6.87382933 5.12757121 4.8125 4.1875 C3.89082031 3.76855469 2.96914062 3.34960938 2.01953125 2.91796875 C1.35308594 2.61503906 0.68664062 2.31210938 0 2 C0 1.34 0 0.68 0 0 Z " fill="#98A8C7" transform="translate(182,70)"/>
<path d="M0 0 C-7.2396779 3.39311038 -14.57013595 6.51214164 -21.98413086 9.50024414 C-26.08985441 11.16632793 -30.0516434 12.98017596 -34 15 C-36.32671865 16.01529541 -38.6603447 17.01488198 -41 18 C-42.175625 18.53625 -43.35125 19.0725 -44.5625 19.625 C-47.77031537 20.90812615 -50.6168512 21.43614187 -54 22 C-54.33 22.66 -54.66 23.32 -55 24 C-57.76276177 23.47731534 -60.3260876 22.89130413 -63 22 C-63 21.34 -63 20.68 -63 20 C-63.99 19.67 -64.98 19.34 -66 19 C-66.3721042 17.67696283 -66.70630173 16.34262065 -67 15 C-67.66 14.67 -68.32 14.34 -69 14 C-68.01 13.67 -67.02 13.34 -66 13 C-65.2575 13.598125 -64.515 14.19625 -63.75 14.8125 C-60.51024176 17.38958042 -58.06304175 18.27445683 -54 19 C-51.32854463 18.19838209 -51.32854463 18.19838209 -49 17 C-47.68 17 -46.36 17 -45 17 C-44.67 16.01 -44.34 15.02 -44 14 C-43.195625 13.938125 -42.39125 13.87625 -41.5625 13.8125 C-37.49313799 12.88439989 -34.58767755 11.21493986 -31.05078125 9.05859375 C-29 8 -29 8 -26 8 C-25.34 7.34 -24.68 6.68 -24 6 C-23.01 6 -22.02 6 -21 6 C-21 5.34 -21 4.68 -21 4 C-18.06520402 3.13541688 -15.12778481 2.28302813 -12.1875 1.4375 C-11.35412109 1.19064453 -10.52074219 0.94378906 -9.66210938 0.68945312 C-8.85966797 0.46064453 -8.05722656 0.23183594 -7.23046875 -0.00390625 C-6.49207764 -0.21861572 -5.75368652 -0.4333252 -4.99291992 -0.65454102 C-3 -1 -3 -1 0 0 Z " fill="#8C9EC1" transform="translate(103,217)"/>
<path d="M0 0 C3.32252227 0.58601681 6.26241447 1.39592547 9.36523438 2.71484375 C10.61439636 3.24174805 10.61439636 3.24174805 11.88879395 3.77929688 C12.78142944 4.16150391 13.67406494 4.54371094 14.59375 4.9375 C15.53569214 5.33646484 16.47763428 5.73542969 17.44812012 6.14648438 C20.46730936 7.42657582 23.48365865 8.71321439 26.5 10 C28.46726776 10.83505996 30.43471412 11.66969931 32.40234375 12.50390625 C45.28239057 17.96943135 58.14301192 23.48048906 71 29 C66.92472628 30.35842457 64.37250562 28.89029265 60.5625 27.375 C59.85109863 27.10155762 59.13969727 26.82811523 58.40673828 26.54638672 C53.08392528 24.48390118 47.84349773 22.24961645 42.6484375 19.8828125 C39.63595812 18.87865271 37.15507142 18.94741548 34 19 C31.625 17.625 31.625 17.625 30 16 C30 15.34 30 14.68 30 14 C23.70695459 11.85671642 17.37732315 9.87724961 11 8 C11 7.34 11 6.68 11 6 C10.37351562 5.79503906 9.74703125 5.59007812 9.1015625 5.37890625 C8.28429687 5.10949219 7.46703125 4.84007812 6.625 4.5625 C5.81289062 4.29566406 5.00078125 4.02882813 4.1640625 3.75390625 C2 3 2 3 0 2 C0 1.34 0 0.68 0 0 Z " fill="#96A8CC" transform="translate(86,30)"/>
<path d="M0 0 C0.66 0.33 1.32 0.66 2 1 C2.625 3.5625 2.625 3.5625 3 6 C1.35 5.67 -0.3 5.34 -2 5 C-2.185625 6.2065625 -2.185625 6.2065625 -2.375 7.4375 C-2.58125 8.283125 -2.7875 9.12875 -3 10 C-3.99 10.495 -3.99 10.495 -5 11 C-4.98839844 11.7734375 -4.97679687 12.546875 -4.96484375 13.34375 C-4.91290155 19.33936364 -5.08815844 25.07302983 -6 31 C-5.34 31.33 -4.68 31.66 -4 32 C-4.66 32 -5.32 32 -6 32 C-5.96970703 33.20011719 -5.93941406 34.40023437 -5.90820312 35.63671875 C-5.79537886 40.11699987 -5.6838738 44.59731303 -5.57275391 49.07763672 C-5.52460766 51.01156489 -5.47611037 52.94548436 -5.42724609 54.87939453 C-5.3568088 57.66957382 -5.28766124 60.45978265 -5.21875 63.25 C-5.18593933 64.533302 -5.18593933 64.533302 -5.15246582 65.8425293 C-4.77459599 81.32378796 -4.77459599 81.32378796 -6 85 C-5.34 85.33 -4.68 85.66 -4 86 C-4.66 86 -5.32 86 -6 86 C-5.9592334 86.59014893 -5.9184668 87.18029785 -5.87646484 87.78833008 C-5.69806797 90.4624414 -5.53635493 93.13730859 -5.375 95.8125 C-5.31054688 96.74126953 -5.24609375 97.67003906 -5.1796875 98.62695312 C-5.128125 99.51962891 -5.0765625 100.41230469 -5.0234375 101.33203125 C-4.94488525 102.56530151 -4.94488525 102.56530151 -4.86474609 103.82348633 C-5 106 -5 106 -7 109 C-7.11580828 95.78729954 -7.20467238 82.57471965 -7.25906086 69.36161518 C-7.2851636 63.22632748 -7.3205751 57.0913868 -7.37719727 50.95629883 C-7.43149125 45.03648146 -7.46141543 39.11699804 -7.47438622 33.19695091 C-7.48363067 30.93745859 -7.50168286 28.67798471 -7.52865028 26.41863441 C-7.56490467 23.25565604 -7.5699467 20.09406064 -7.56762695 16.9309082 C-7.58560333 15.99510925 -7.60357971 15.0593103 -7.62210083 14.09515381 C-7.58598138 9.54894488 -7.5242274 7.65149706 -4.58952332 4.00431824 C-3.30770927 3.01218071 -3.30770927 3.01218071 -2 2 C-1.34 1.34 -0.68 0.68 0 0 Z " fill="#829DD6" transform="translate(42,17)"/>
<path d="M0 0 C4.23439087 0.35286591 6.79682047 1.41315186 10.546875 3.37890625 C11.45530151 3.85154907 11.45530151 3.85154907 12.38208008 4.33374023 C17.13319044 6.84896044 21.65390549 9.67472073 26.14453125 12.62890625 C28.8457604 14.34750859 31.59659892 15.87418223 34.421875 17.37890625 C39.43623026 20.05563402 44.13463482 23.07010568 48.796875 26.31640625 C47.806875 26.81140625 47.806875 26.81140625 46.796875 27.31640625 C44.46953567 26.24717051 42.27945056 25.12245447 40.046875 23.87890625 C39.38308838 23.51708252 38.71930176 23.15525879 38.03540039 22.7824707 C32.28263671 19.63067249 26.59034073 16.37197587 20.91796875 13.078125 C17.9215233 11.38676468 14.88775745 9.8269879 11.796875 8.31640625 C11.796875 7.65640625 11.796875 6.99640625 11.796875 6.31640625 C2.58898857 4.72096209 2.58898857 4.72096209 -6.203125 6.31640625 C-5.35283126 2.06493756 -4.61329006 0.45570304 0 0 Z " fill="#6E8BC3" transform="translate(86.203125,69.68359375)"/>
<path d="M0 0 C-0.33 0.66 -0.66 1.32 -1 2 C-2.66666667 2.33333333 -4.33333333 2.66666667 -6 3 C-6.33 3.66 -6.66 4.32 -7 5 C-9.19735669 6.05744109 -11.3706203 7.01862039 -13.625 7.9375 C-14.83414063 8.44152344 -16.04328125 8.94554687 -17.2890625 9.46484375 C-17.83256348 9.687771 -18.37606445 9.91069824 -18.93603516 10.14038086 C-24.31460297 12.38049646 -29.65470976 14.71319924 -35 17.03125 C-35.639375 17.30843872 -36.27875 17.58562744 -36.9375 17.87121582 C-38.95839323 18.74733915 -40.97920698 19.62364556 -43 20.5 C-45.66659387 21.65641798 -48.33327198 22.81264141 -51 23.96875 C-52.175625 24.47857422 -53.35125 24.98839844 -54.5625 25.51367188 C-56.97511904 26.55685545 -59.38916583 27.59602245 -61.80566406 28.63012695 C-63.57900037 29.39061228 -65.34980134 30.1574106 -67.109375 30.94921875 C-69.929189 32.21813505 -71.87404987 33 -75 33 C-75 32.34 -75 31.68 -75 31 C-74.21238281 30.70867187 -73.42476562 30.41734375 -72.61328125 30.1171875 C-64.55792379 27.08570387 -56.78690394 23.66863322 -49 20 C-44.23338841 17.7956455 -39.4249621 15.76205944 -34.53710938 13.83935547 C-28.64985427 11.52317771 -22.91047059 9.07817037 -17.2890625 6.1640625 C-14.18284535 4.58445037 -11.00638423 3.18849599 -7.8125 1.796875 C-3.7254902 0 -3.7254902 0 0 0 Z " fill="#97A6C2" transform="translate(220,165)"/>
<path d="M0 0 C1.22074219 0.4846875 2.44148438 0.969375 3.69921875 1.46875 C4.36566406 1.72994629 5.03210938 1.99114258 5.71875 2.26025391 C7.94985756 3.14357154 10.16910036 4.05210357 12.38671875 4.96875 C13.24056152 5.32163086 14.0944043 5.67451172 14.97412109 6.03808594 C20.45919177 8.31543681 25.92727694 10.6306847 31.38671875 12.96875 C31.38671875 13.29875 31.38671875 13.62875 31.38671875 13.96875 C26.14791797 13.41729729 21.41321178 12.53952907 16.38671875 10.96875 C16.38671875 10.30875 16.38671875 9.64875 16.38671875 8.96875 C15.71125 8.8553125 15.03578125 8.741875 14.33984375 8.625 C10.81823323 7.84241988 7.530747 6.69003213 4.13671875 5.46875 C2.8940625 5.0253125 1.65140625 4.581875 0.37109375 4.125 C-2.61328125 2.96875 -2.61328125 2.96875 -3.61328125 1.96875 C-8.23061482 1.37578716 -12.23379602 1.29989397 -16.17578125 3.96875 C-16.98015625 4.62875 -17.78453125 5.28875 -18.61328125 5.96875 C-17.6177726 3.3442272 -16.67364671 2.01846273 -14.48828125 0.21875 C-9.54633242 -1.9299234 -5.0510347 -1.44159261 0 0 Z " fill="#97A8C9" transform="translate(54.61328125,16.03125)"/>
<path d="M0 0 C-13.18359375 5.859375 -13.18359375 5.859375 -15.58105469 6.92480469 C-17.22243767 7.65438186 -18.86371006 8.38420787 -20.50488281 9.11425781 C-21.69936035 9.6455127 -21.69936035 9.6455127 -22.91796875 10.1875 C-23.63364014 10.50589844 -24.34931152 10.82429687 -25.08666992 11.15234375 C-31.51440092 14 -31.51440092 14 -35 14 C-35.33 14.66 -35.66 15.32 -36 16 C-39.0625 16.625 -39.0625 16.625 -42 17 C-39.07269453 11.14538905 -26.73234399 8.41611385 -20.68359375 6.08203125 C-18.57273916 5.23092976 -16.48613521 4.31966686 -14.41015625 3.38671875 C-13.47127563 2.96616211 -13.47127563 2.96616211 -12.51342773 2.53710938 C-10.70595419 1.72392154 -8.90362375 0.89933105 -7.1015625 0.07421875 C-3.88140924 -1.04107363 -3.08641943 -0.96914738 0 0 Z " fill="#98A5BE" transform="translate(145,199)"/>
<path d="M0 0 C0.78375 0.33 1.5675 0.66 2.375 1 C2.375 1.66 2.375 2.32 2.375 3 C4.355 3.66 6.335 4.32 8.375 5 C5.375 6 5.375 6 3.5625 5.125 C2.840625 4.75375 2.11875 4.3825 1.375 4 C-4.51374866 2.52781284 -10.59833461 2.91223303 -16.625 3 C-16.295 2.01 -15.965 1.02 -15.625 0 C-10.99646715 -2.31426642 -4.81237222 -1.32755096 0 0 Z " fill="#84A1DA" transform="translate(95.625,75)"/>
<path d="M0 0 C4.66517821 0.96355913 8.14196272 3.35977252 12.125 5.875 C12.85332031 6.32230469 13.58164063 6.76960938 14.33203125 7.23046875 C15.02941406 7.66746094 15.72679687 8.10445312 16.4453125 8.5546875 C17.39688232 9.14999268 17.39688232 9.14999268 18.36767578 9.75732422 C20 11 20 11 22 14 C21.625 16.1875 21.625 16.1875 21 18 C20.319375 17.29875 19.63875 16.5975 18.9375 15.875 C13.63122154 10.59844859 8.04041377 6.21769223 1.72265625 2.19921875 C1.15417969 1.80347656 0.58570313 1.40773438 0 1 C0 0.67 0 0.34 0 0 Z " fill="#839FD9" transform="translate(151,106)"/>
<path d="M0 0 C5.22207461 2.07673237 9.76128679 4.58486965 14.4375 7.6875 C15.07365234 8.10322266 15.70980469 8.51894531 16.36523438 8.94726562 C17.91336626 9.9599534 19.4571517 10.97928067 21 12 C20.01 12.495 20.01 12.495 19 13 C16.51279671 11.82185107 14.14604858 10.59289095 11.75 9.25 C10.43267607 8.52534244 9.11497217 7.80137514 7.796875 7.078125 C7.16072266 6.72685547 6.52457031 6.37558594 5.86914062 6.01367188 C3.27888571 4.60892548 0.64507612 3.2978945 -2 2 C-1.34 1.34 -0.68 0.68 0 0 Z " fill="#809AD3" transform="translate(114,84)"/>
<path d="M0 0 C7.91909556 2.45765035 15.41985296 5.66818573 23 9 C19.71023192 10.09658936 18.28696233 9.79953138 15 9 C15 8.34 15 7.68 15 7 C14.41992188 6.89042969 13.83984375 6.78085938 13.2421875 6.66796875 C8.40253723 5.6856635 4.34633884 4.45178089 0 2 C0 1.34 0 0.68 0 0 Z " fill="#9AA9C6" transform="translate(158,60)"/>
<path d="M0 0 C2.31 0.66 4.62 1.32 7 2 C7 2.66 7 3.32 7 4 C9.97 4.33 12.94 4.66 16 5 C16 5.66 16 6.32 16 7 C14.96875 6.814375 13.9375 6.62875 12.875 6.4375 C9.23851558 6.02692918 6.54562991 6.221691 3 7 C2.67 6.34 2.34 5.68 2 5 C2.66 4.67 3.32 4.34 4 4 C2.68 3.34 1.36 2.68 0 2 C0 1.34 0 0.68 0 0 Z " fill="#8EA9DD" transform="translate(166,65)"/>
<path d="M0 0 C3.89006773 1.38780795 6.96558708 3.2152227 10.3125 5.625 C11.19550781 6.25664063 12.07851562 6.88828125 12.98828125 7.5390625 C13.65214844 8.02117187 14.31601563 8.50328125 15 9 C12 10 12 10 9.37109375 8.85546875 C8.40300781 8.30503906 7.43492188 7.75460938 6.4375 7.1875 C5.46683594 6.64480469 4.49617188 6.10210937 3.49609375 5.54296875 C1 4 1 4 -1 2 C-0.67 1.34 -0.34 0.68 0 0 Z " fill="#7793CC" transform="translate(99,75)"/>
<path d="M0 0 C0.66 0.33 1.32 0.66 2 1 C0.625 2.5 0.625 2.5 -1 4 C-1.66 4 -2.32 4 -3 4 C-3 4.66 -3 5.32 -3 6 C-9.45 10.09326923 -9.45 10.09326923 -12.234375 9.62109375 C-12.81703125 9.41613281 -13.3996875 9.21117187 -14 9 C-2.68796992 1.38471178 -2.68796992 1.38471178 0 0 Z " fill="#8FADE7" transform="translate(154,135)"/>
<path d="M0 0 C0.33 0.66 0.66 1.32 1 2 C3.45141886 2.43208654 3.45141886 2.43208654 6.3125 2.5625 C9.66758783 2.78199173 12.76344731 3.06977939 16 4 C15.195625 4.12375 14.39125 4.2475 13.5625 4.375 C12.2940625 4.684375 12.2940625 4.684375 11 5 C10.67 5.66 10.34 6.32 10 7 C7.23723823 6.47731534 4.6739124 5.89130413 2 5 C2 4.34 2 3.68 2 3 C1.01 2.67 0.02 2.34 -1 2 C-0.67 1.34 -0.34 0.68 0 0 Z " fill="#9DA5AB" transform="translate(38,234)"/>
<path d="M0 0 C5.2584002 0.67415387 10.02638346 2.24265549 15 4 C15 4.66 15 5.32 15 6 C11.37 5.34 7.74 4.68 4 4 C3.01 5.485 3.01 5.485 2 7 C1.34 4.69 0.68 2.38 0 0 Z " fill="#8EA9DD" transform="translate(143,56)"/>
<path d="M0 0 C2.64 0.66 5.28 1.32 8 2 C8 2.66 8 3.32 8 4 C9.98 4.66 11.96 5.32 14 6 C11 7 11 7 8.5546875 6.07421875 C7.67039062 5.61660156 6.78609375 5.15898438 5.875 4.6875 C4.98554687 4.23761719 4.09609375 3.78773437 3.1796875 3.32421875 C1 2 1 2 0 0 Z " fill="#809BD3" transform="translate(90,74)"/>
<path d="M0 0 C1.46067199 0.45082469 2.91848032 0.91093537 4.375 1.375 C5.18710938 1.63023438 5.99921875 1.88546875 6.8359375 2.1484375 C9 3 9 3 11 5 C6.94393835 4.53199289 3.53411321 4.12046792 0 2 C0 1.34 0 0.68 0 0 Z " fill="#9AA9C7" transform="translate(106,38)"/>
<path d="M0 0 C0.66 0.33 1.32 0.66 2 1 C1.67 1.33 1.34 1.66 1 2 C2.65 2.33 4.3 2.66 6 3 C5.67 3.66 5.34 4.32 5 5 C4.05125 4.979375 3.1025 4.95875 2.125 4.9375 C-0.90666283 4.77448174 -0.90666283 4.77448174 -3 6 C-2.42655063 3.13275314 -2.1385485 2.1385485 0 0 Z " fill="#7592CF" transform="translate(83,70)"/>
<path d="M0 0 C-1.25 1.5625 -1.25 1.5625 -3 3 C-5.1875 2.6875 -5.1875 2.6875 -7 2 C-7 1.34 -7 0.68 -7 0 C-3.86650268 -1.04449911 -3.01031744 -0.93423645 0 0 Z " fill="#85A1DA" transform="translate(198,173)"/>
<path d="M0 0 C2.625 -0.1875 2.625 -0.1875 5 0 C5 0.66 5 1.32 5 2 C4.195625 2.12375 3.39125 2.2475 2.5625 2.375 C1.2940625 2.684375 1.2940625 2.684375 0 3 C-0.33 3.66 -0.66 4.32 -1 5 C-1.33 4.34 -1.66 3.68 -2 3 C-1.34 2.01 -0.68 1.02 0 0 Z " fill="#85A0D8" transform="translate(200,169)"/>
<path d="M0 0 C-0.33 0.66 -0.66 1.32 -1 2 C-2.66666667 2.33333333 -4.33333333 2.66666667 -6 3 C-6.33 3.66 -6.66 4.32 -7 5 C-7.66 4.34 -8.32 3.68 -9 3 C-5.55930376 0.70620251 -4.27709699 0 0 0 Z " fill="#95A3BB" transform="translate(220,165)"/>
<path d="M0 0 C0.66 0.66 1.32 1.32 2 2 C-2.455 3.485 -2.455 3.485 -7 5 C-6.67 3.68 -6.34 2.36 -6 1 C-4.7934375 1.0309375 -4.7934375 1.0309375 -3.5625 1.0625 C-1.06645115 1.29633621 -1.06645115 1.29633621 0 0 Z " fill="#859FD5" transform="translate(121,205)"/>
</svg>
