<?xml version="1.0" encoding="UTF-8"?>
<svg version="1.1" xmlns="http://www.w3.org/2000/svg" width="16" height="16">
<path d="M0 0 C1.41791408 0.45445964 2.83428046 0.91374944 4.25 1.375 C5.43335938 1.75785156 5.43335938 1.75785156 6.640625 2.1484375 C8.86627958 2.95173667 10.90931672 3.89711662 13 5 C13 6.98 13 8.96 13 11 C11.23494565 11.86604534 9.46271926 12.71748642 7.6875 13.5625 C6.20830078 14.27599609 6.20830078 14.27599609 4.69921875 15.00390625 C2 16 2 16 -1 15 C-1.02685412 12.68756208 -1.04632841 10.3750373 -1.0625 8.0625 C-1.07410156 6.77472656 -1.08570312 5.48695312 -1.09765625 4.16015625 C-1 1 -1 1 0 0 Z " fill="#86A4E0" transform="translate(2,0)"/>
<path d="M0 0 C0.99 0.495 0.99 0.495 2 1 C1.979375 1.763125 1.95875 2.52625 1.9375 3.3125 C1.87057159 6.10185786 1.87057159 6.10185786 3 9 C3.66 9 4.32 9 5 9 C5 9.66 5 10.32 5 11 C3.0625 11.5625 3.0625 11.5625 1 12 C0 11 0 11 -0.09765625 8.49609375 C-0.08605469 7.48675781 -0.07445313 6.47742188 -0.0625 5.4375 C-0.05347656 4.42558594 -0.04445312 3.41367188 -0.03515625 2.37109375 C-0.02355469 1.58863281 -0.01195313 0.80617188 0 0 Z " fill="#7C97D0" transform="translate(1,4)"/>
<path d="M0 0 C2.475 0.99 2.475 0.99 5 2 C5 2.66 5 3.32 5 4 C3.35 4.66 1.7 5.32 0 6 C0 4.02 0 2.04 0 0 Z " fill="#97B6EF" transform="translate(5,5)"/>
</svg>
